<svg xmlns="http://www.w3.org/2000/svg" width="256" height="384" viewBox="0 0 128 192" shape-rendering="crispEdges">
  <rect width="128" height="192" fill="none"/>
  <rect x="36" y="12" width="56" height="18" fill="#263449"/>
  <rect x="32" y="30" width="64" height="18" fill="#263449"/>
  <rect x="38" y="44" width="52" height="38" fill="#e2b18d"/>
  <rect x="32" y="40" width="12" height="28" fill="#263449"/>
  <rect x="84" y="40" width="12" height="28" fill="#263449"/>
  <rect x="48" y="58" width="8" height="8" fill="#102033"/>
  <rect x="72" y="58" width="8" height="8" fill="#102033"/>
  <rect x="56" y="74" width="16" height="4" fill="#8b4b45"/>
  <rect x="48" y="82" width="32" height="16" fill="#e2b18d"/>
  <rect x="22" y="98" width="84" height="78" fill="#e5edf7"/>
  <rect x="36" y="98" width="56" height="78" fill="#f8fbff"/>
  <rect x="56" y="98" width="16" height="78" fill="#2563eb"/>
  <rect x="26" y="108" width="12" height="52" fill="#dbeafe"/>
  <rect x="90" y="108" width="12" height="52" fill="#dbeafe"/>
  <rect x="22" y="160" width="16" height="10" fill="#e2b18d"/>
  <rect x="90" y="160" width="16" height="10" fill="#e2b18d"/>
  <rect x="42" y="176" width="16" height="12" fill="#1e3a8a"/>
  <rect x="70" y="176" width="16" height="12" fill="#1e3a8a"/>
</svg>
