<svg xmlns="http://www.w3.org/2000/svg" width="256" height="384" viewBox="0 0 128 192" shape-rendering="crispEdges">
  <rect width="128" height="192" fill="none"/>
  <rect x="34" y="14" width="60" height="16" fill="#334155"/>
  <rect x="32" y="30" width="64" height="18" fill="#334155"/>
  <rect x="38" y="46" width="52" height="36" fill="#d7a07a"/>
  <rect x="48" y="58" width="8" height="8" fill="#0f172a"/>
  <rect x="72" y="58" width="8" height="8" fill="#0f172a"/>
  <rect x="56" y="74" width="18" height="4" fill="#7c2d12"/>
  <rect x="50" y="82" width="28" height="16" fill="#d7a07a"/>
  <rect x="24" y="98" width="80" height="74" fill="#475569"/>
  <rect x="42" y="98" width="44" height="74" fill="#64748b"/>
  <rect x="54" y="104" width="20" height="16" fill="#ef4444"/>
  <rect x="18" y="108" width="14" height="50" fill="#475569"/>
  <rect x="96" y="108" width="14" height="50" fill="#475569"/>
  <rect x="18" y="158" width="14" height="12" fill="#d7a07a"/>
  <rect x="96" y="158" width="14" height="12" fill="#d7a07a"/>
  <rect x="42" y="172" width="16" height="16" fill="#111827"/>
  <rect x="70" y="172" width="16" height="16" fill="#111827"/>
</svg>
