<svg xmlns="http://www.w3.org/2000/svg" width="256" height="384" viewBox="0 0 128 192" shape-rendering="crispEdges">
  <rect width="128" height="192" fill="none"/>
  <rect x="38" y="22" width="52" height="52" fill="#0e7490"/>
  <rect x="44" y="28" width="40" height="40" fill="#164e63"/>
  <rect x="52" y="42" width="8" height="8" fill="#67e8f9"/>
  <rect x="68" y="42" width="8" height="8" fill="#67e8f9"/>
  <rect x="56" y="60" width="16" height="4" fill="#67e8f9"/>
  <rect x="50" y="80" width="28" height="16" fill="#155e75"/>
  <rect x="26" y="96" width="76" height="78" fill="#164e63"/>
  <rect x="36" y="106" width="56" height="56" fill="#0f172a"/>
  <rect x="46" y="118" width="36" height="6" fill="#22d3ee"/>
  <rect x="46" y="132" width="22" height="6" fill="#22d3ee"/>
  <rect x="18" y="108" width="12" height="52" fill="#155e75"/>
  <rect x="98" y="108" width="12" height="52" fill="#155e75"/>
  <rect x="42" y="174" width="16" height="14" fill="#083344"/>
  <rect x="70" y="174" width="16" height="14" fill="#083344"/>
</svg>
