<svg xmlns="http://www.w3.org/2000/svg" width="256" height="384" viewBox="0 0 128 192" shape-rendering="crispEdges">
  <rect width="128" height="192" fill="none"/>
  <rect x="34" y="12" width="58" height="18" fill="#6b3f28"/>
  <rect x="30" y="30" width="66" height="28" fill="#6b3f28"/>
  <rect x="38" y="48" width="52" height="34" fill="#efb58e"/>
  <rect x="30" y="48" width="12" height="30" fill="#6b3f28"/>
  <rect x="86" y="48" width="10" height="30" fill="#6b3f28"/>
  <rect x="48" y="60" width="8" height="8" fill="#1f2937"/>
  <rect x="72" y="60" width="8" height="8" fill="#1f2937"/>
  <rect x="56" y="75" width="16" height="4" fill="#9f473b"/>
  <rect x="50" y="82" width="28" height="16" fill="#efb58e"/>
  <rect x="26" y="98" width="76" height="72" fill="#f97316"/>
  <rect x="40" y="98" width="48" height="72" fill="#fed7aa"/>
  <rect x="54" y="108" width="20" height="18" fill="#38bdf8"/>
  <rect x="18" y="108" width="14" height="50" fill="#fb923c"/>
  <rect x="96" y="108" width="14" height="50" fill="#fb923c"/>
  <rect x="18" y="158" width="14" height="12" fill="#efb58e"/>
  <rect x="96" y="158" width="14" height="12" fill="#efb58e"/>
  <rect x="42" y="170" width="16" height="18" fill="#1f2937"/>
  <rect x="70" y="170" width="16" height="18" fill="#1f2937"/>
</svg>
